<svg xmlns="http://www.w3.org/2000/svg" width="512" height="512" viewBox="0 0 512 512">
  <defs>
    <style>
      .cls-1 {
        fill-rule: evenodd;
      }
    </style>
  </defs>
  <path class="cls-1" d="M258.81,233.841h60.374v-0.559q-31.86-73.565-63.728-147.144H254.9l-63.169,147.7H252.1V260.7L128,384.342V346.856l3.922-3.925,82.726-82.794H154.833L129.118,234.4v-0.559a33.856,33.856,0,0,0,12.3-1.678c5.037-1.682,8.8-4.267,12.858-7.833a96.171,96.171,0,0,0,11.739-12.309,193.229,193.229,0,0,0,12.3-17.9,230.823,230.823,0,0,0,14.534-29.653c4.522-9.248,8.74-18.427,12.858-27.974,4.8-11.12,8.747-21.835,13.416-33.009,5.263-12.6,10.8-24.392,16.212-36.926,2.261-5.243,6.332-14.881,9.5-22.379Q250.162,31.582,255.456,19c3.786,8.543,7.482,17.052,11.181,25.736,3.345,7.854,7.8,18.615,11.739,27.974,3.712,8.813,7.464,17.485,11.18,26.3,3.735,8.854,8.428,20.016,11.181,26.3,2.657,6.061,5.361,11.916,8,17.985,2.6,5.971,6.594,15.215,9.885,22.857,2.354,5.465,4.692,10.575,7.268,15.665a175.578,175.578,0,0,0,11.739,20.142c3.107,4.512,6.309,7.857,9.5,12.308,6.516,9.078,16.084,15.327,17.33,15.666a7.423,7.423,0,0,1,.907.327,7.96,7.96,0,0,1,1.888,1.351,9.635,9.635,0,0,0,1.677,1.119,10.449,10.449,0,0,0,4.472,1.119,86.611,86.611,0,0,0,8.945,0q-12.858,13.147-25.715,26.3H296.265l86.648,86.719c0.1,6.391.1,12.632,0,19.023-0.1,6.016-.281,11.892-0.559,17.9L258.81,260.137v-26.3ZM254.9,263.494c11.341,11.851,22.631,23.52,34.1,35.247,29.248,29.9,58.259,58.755,88.325,87.839L379,388.258q-10.063,10.35-20.125,20.7H322.539a98.058,98.058,0,0,1,7.267-8.392c0.682-.7,1.47-1.488,2.236-2.238,3-2.936,6.331-6.5,9.5-10.071L254.9,301.538h-1.118l-86.089,86.72Q220.519,441.129,273.345,494H235.891q-52.828-52.87-105.655-105.742c5.277-5,10.439-9.983,15.653-15.106,5.265-5.174,10.422-10.337,15.652-15.666C179.287,339.408,223.641,294.891,254.9,263.494Z" transform="translate(0.5 -0.5)"/>
</svg>
